<svg xmlns="http://www.w3.org/2000/svg" xmlns:svg="http://www.w3.org/2000/svg" id="svg6688" width="256" height="128" version="1.1"><metadata id="metadata6693"/><g id="layer1" transform="translate(0,-924.36218)"><g id="g6371" transform="translate(-44.65782,888.32419)"><path id="path6373" d="m 159.57758,77.10255 -0.125,38.29468" style="fill:none;stroke:#000;stroke-width:10;stroke-linecap:round;stroke-linejoin:miter;stroke-miterlimit:4;stroke-opacity:1;stroke-dasharray:none"/><path style="fill:none;stroke:#000;stroke-width:10;stroke-linecap:round;stroke-linejoin:miter;stroke-miterlimit:4;stroke-opacity:1;stroke-dasharray:none" id="path6375" d="m 178.01629,83.249 -7.25,32.14823"/><path style="color:#000;fill:none;stroke:#000;stroke-width:6;stroke-linecap:round;stroke-linejoin:miter;stroke-miterlimit:4;stroke-opacity:1;stroke-dasharray:none;stroke-dashoffset:0;marker:none;visibility:visible;display:inline;overflow:visible;enable-background:accumulate" id="path17660-7" d="m 189.21875,71.7251 c -2.13249,0 -4.1157,0.6393 -5.78125,1.7187 -1.61412,-0.9851 -3.50189,-1.5625 -5.53125,-1.5625 -5.88183,0 -10.65625,4.7744 -10.65625,10.6562 0,5.8819 4.77442,10.6563 10.65625,10.6563 2.14192,0 4.14243,-0.6306 5.8125,-1.7187 1.60635,0.9717 3.4856,1.5312 5.5,1.5312 0.28386,0 0.56549,-0.0407 0.84375,-0.0625 1.17147,4.6091 5.30764,8.0313 10.28125,8.0313 5.88183,0 10.65625,-4.7745 10.65625,-10.6563 0,-5.8818 -4.77442,-10.6563 -10.65625,-10.6563 -0.28141,0 -0.53658,0.0411 -0.8125,0.0626 -1.17556,-4.6032 -5.34311,-8 -10.3125,-8 z"/><path id="path6377" d="m 189.33,83.07222 -7.25,32.32501" style="fill:none;stroke:#000;stroke-width:10;stroke-linecap:round;stroke-linejoin:miter;stroke-miterlimit:4;stroke-opacity:1;stroke-dasharray:none"/><path style="fill:none;stroke:#000;stroke-width:10;stroke-linecap:round;stroke-linejoin:miter;stroke-miterlimit:4;stroke-opacity:1;stroke-dasharray:none" id="path6379" d="m 200.29016,91.73428 -7.25,23.66295"/><path id="path6381" d="m 148.31565,106.73517 0,22.45064 9.54594,0 0,-6.01041 -7.6014,0" style="color:#000;fill:none;stroke:#000;stroke-width:10;stroke-linecap:round;stroke-linejoin:miter;stroke-miterlimit:4;stroke-opacity:1;stroke-dasharray:none;stroke-dashoffset:0;marker:none;visibility:visible;display:inline;overflow:visible;enable-background:accumulate"/><rect id="rect6383" width="33.588" height="16.794" x="159.453" y="112.392" rx="1.233" ry="1.233" style="color:#000;fill:#000;fill-opacity:1;stroke:#000;stroke-width:10;stroke-linecap:round;stroke-linejoin:miter;stroke-miterlimit:4;stroke-opacity:1;stroke-dasharray:none;stroke-dashoffset:0;marker:none;visibility:visible;display:inline;overflow:visible;enable-background:accumulate"/><path id="path17660-1" d="m 152.79336,134.32383 c -10.47222,-0.66641 -18.42141,-9.69606 -17.75501,-20.16828 0.66641,-10.47223 9.69606,-18.421421 20.16829,-17.755014 7.82695,0.498073 14.54358,5.754084 16.90877,13.231724" transform="matrix(0.56052632,0,0,0.56052632,72.822236,11.876987)" style="color:#000;fill:none;stroke:#000;stroke-width:7.13614988;stroke-linecap:round;stroke-linejoin:miter;stroke-miterlimit:4;stroke-opacity:1;stroke-dasharray:none;stroke-dashoffset:0;marker:none;visibility:visible;display:inline;overflow:visible;enable-background:accumulate"/></g></g></svg>