<svg xmlns="http://www.w3.org/2000/svg" xmlns:svg="http://www.w3.org/2000/svg" id="svg6688" width="256" height="128" version="1.1"><metadata id="metadata6693"/><g id="layer1" transform="translate(0,-924.36218)"><g id="g7185" transform="translate(-95.79845,909.60987)"><path style="fill:none;stroke:#000;stroke-width:10;stroke-linecap:round;stroke-linejoin:miter;stroke-miterlimit:4;stroke-opacity:1;stroke-dasharray:none" id="path7187" d="m 159.45258,81.10255 0,34.29468"/><path id="path7189" d="m 170.76629,80.749 0,34.64823" style="fill:none;stroke:#000;stroke-width:10;stroke-linecap:round;stroke-linejoin:miter;stroke-miterlimit:4;stroke-opacity:1;stroke-dasharray:none"/><path style="fill:none;stroke:#000;stroke-width:10;stroke-linecap:round;stroke-linejoin:miter;stroke-miterlimit:4;stroke-opacity:1;stroke-dasharray:none" id="path7191" d="m 182.08,80.57222 0,34.82501"/><path id="path7193" d="m 193.04016,89.23428 0,26.16295" style="fill:none;stroke:#000;stroke-width:10;stroke-linecap:round;stroke-linejoin:miter;stroke-miterlimit:4;stroke-opacity:1;stroke-dasharray:none"/><path style="color:#000;fill:none;stroke:#000;stroke-width:10;stroke-linecap:round;stroke-linejoin:miter;stroke-miterlimit:4;stroke-opacity:1;stroke-dasharray:none;stroke-dashoffset:0;marker:none;visibility:visible;display:inline;overflow:visible;enable-background:accumulate" id="path7195" d="m 148.31565,106.73517 0,22.45064 9.54594,0 0,-6.01041 -7.6014,0"/><rect style="color:#000;fill:#000;fill-opacity:1;stroke:#000;stroke-width:10;stroke-linecap:round;stroke-linejoin:miter;stroke-miterlimit:4;stroke-opacity:1;stroke-dasharray:none;stroke-dashoffset:0;marker:none;visibility:visible;display:inline;overflow:visible;enable-background:accumulate" id="rect7197" width="33.588" height="16.794" x="159.453" y="112.392" rx="1.233" ry="1.233"/><path style="color:#000;fill:none;stroke:#000;stroke-width:6;stroke-linecap:round;stroke-linejoin:miter;stroke-miterlimit:4;stroke-opacity:1;stroke-dasharray:none;stroke-dashoffset:0;marker:none;visibility:visible;display:inline;overflow:visible;enable-background:accumulate" id="path7260" d="m 159,65.09375 c -6.8354,-7.7e-5 -12.28125,5.423585 -12.28125,12.25 0,6.826292 5.45486,12.28125 12.28125,12.28125 1.62487,0 3.14728,-0.307291 4.5625,-0.875 a 3.8697846,3.8697846 0 0 1 2.875,0 c 1.41522,0.567709 2.93763,0.875 4.5625,0.875 1.34263,0 2.6304,-0.209785 3.8125,-0.59375 a 3.8697846,3.8697846 0 0 1 2.375,0 c 0.46167,0.149942 0.97803,0.275587 1.5,0.375 a 3.8697846,3.8697846 0 0 1 2.875,2.40625 c 1.78319,4.57473 6.19049,7.8125 11.4375,7.8125 6.82639,0 12.28125,-5.454958 12.28125,-12.28125 0,-6.028888 -4.29144,-10.950522 -9.96875,-12.03125 a 3.8697846,3.8697846 0 0 1 -2.875,-2.40625 c -1.78319,-4.57473 -6.19049,-7.8125 -11.4375,-7.8125 -1.34263,0 -2.6304,0.209785 -3.8125,0.59375 a 3.8697846,3.8697846 0 0 1 -2.375,0 c -1.1821,-0.383965 -2.46987,-0.59375 -3.8125,-0.59375 -1.62499,0 -3.14749,0.307298 -4.5625,0.875 a 3.8697846,3.8697846 0 0 1 -2.875,0 c -1.41501,-0.567702 -2.93751,-0.875 -4.5625,-0.875 z" transform="translate(0,2.1213203)"/><path style="fill:none;stroke:#000;stroke-width:6;stroke-linecap:butt;stroke-linejoin:miter;stroke-miterlimit:4;stroke-opacity:1;stroke-dasharray:none" id="path7212" d="M 175,67.641708 175,31.3813"/><path id="path17614-0" d="m 161.27016,37.068802 13.75,-13.750007 13.74999,13.75001 z" style="color:#000;fill:#000;fill-opacity:1;fill-rule:nonzero;stroke:none;stroke-width:6;marker:none;visibility:visible;display:inline;overflow:visible;enable-background:accumulate"/></g><path style="fill:none;stroke:#000;stroke-width:10;stroke-linecap:round;stroke-linejoin:miter;stroke-miterlimit:4;stroke-opacity:1;stroke-dasharray:none" id="path2994" d="m 159.65413,950.71242 0,34.29468"/><path id="path2996" d="m 170.96784,950.35887 0,34.64823" style="fill:none;stroke:#000;stroke-width:10;stroke-linecap:round;stroke-linejoin:miter;stroke-miterlimit:4;stroke-opacity:1;stroke-dasharray:none"/><path style="fill:none;stroke:#000;stroke-width:10;stroke-linecap:round;stroke-linejoin:miter;stroke-miterlimit:4;stroke-opacity:1;stroke-dasharray:none" id="path2998" d="m 182.28155,950.18209 0,34.82501"/><path id="path3000" d="m 193.24171,958.84415 0,26.16295" style="fill:none;stroke:#000;stroke-width:10;stroke-linecap:round;stroke-linejoin:miter;stroke-miterlimit:4;stroke-opacity:1;stroke-dasharray:none"/><path style="color:#000;fill:none;stroke:#000;stroke-width:10;stroke-linecap:round;stroke-linejoin:miter;stroke-miterlimit:4;stroke-opacity:1;stroke-dasharray:none;stroke-dashoffset:0;marker:none;visibility:visible;display:inline;overflow:visible;enable-background:accumulate" id="path3002" d="m 148.5172,976.345 0,22.4507 9.54594,0 0,-6.0104 -7.6014,0"/><rect style="color:#000;fill:#000;fill-opacity:1;stroke:#000;stroke-width:10;stroke-linecap:round;stroke-linejoin:miter;stroke-miterlimit:4;stroke-opacity:1;stroke-dasharray:none;stroke-dashoffset:0;marker:none;visibility:visible;display:inline;overflow:visible;enable-background:accumulate" id="rect3004" width="33.588" height="16.794" x="159.654" y="982.002" rx="1.233" ry="1.233"/><path style="color:#000;fill:none;stroke:#000;stroke-width:6;stroke-linecap:round;stroke-linejoin:miter;stroke-miterlimit:4;stroke-opacity:1;stroke-dasharray:none;stroke-dashoffset:0;marker:none;visibility:visible;display:inline;overflow:visible;enable-background:accumulate" id="path3006" d="m 159,65.09375 c -6.8354,-7.7e-5 -12.28125,5.423585 -12.28125,12.25 0,6.826292 5.45486,12.28125 12.28125,12.28125 1.62487,0 3.14728,-0.307291 4.5625,-0.875 a 3.8697846,3.8697846 0 0 1 2.875,0 c 1.41522,0.567709 2.93763,0.875 4.5625,0.875 1.34263,0 2.6304,-0.209785 3.8125,-0.59375 a 3.8697846,3.8697846 0 0 1 2.375,0 c 0.46167,0.149942 0.97803,0.275587 1.5,0.375 a 3.8697846,3.8697846 0 0 1 2.875,2.40625 c 1.78319,4.57473 6.19049,7.8125 11.4375,7.8125 6.82639,0 12.28125,-5.454958 12.28125,-12.28125 0,-6.028888 -4.29144,-10.950522 -9.96875,-12.03125 a 3.8697846,3.8697846 0 0 1 -2.875,-2.40625 c -1.78319,-4.57473 -6.19049,-7.8125 -11.4375,-7.8125 -1.34263,0 -2.6304,0.209785 -3.8125,0.59375 a 3.8697846,3.8697846 0 0 1 -2.375,0 c -1.1821,-0.383965 -2.46987,-0.59375 -3.8125,-0.59375 -1.62499,0 -3.14749,0.307298 -4.5625,0.875 a 3.8697846,3.8697846 0 0 1 -2.875,0 c -1.41501,-0.567702 -2.93751,-0.875 -4.5625,-0.875 z" transform="translate(0,872.12132)"/><path style="fill:none;stroke:#000;stroke-width:6;stroke-linecap:butt;stroke-linejoin:miter;stroke-miterlimit:4;stroke-opacity:1;stroke-dasharray:none" id="path3008" d="m 175.24186,999.9287 0,36.2604"/><path id="path3010" d="m 188.9717,1030.5016 -13.75,13.75 -13.74999,-13.75 z" style="color:#000;fill:#000;fill-opacity:1;fill-rule:nonzero;stroke:none;stroke-width:6;marker:none;visibility:visible;display:inline;overflow:visible;enable-background:accumulate"/></g></svg>