<svg xmlns="http://www.w3.org/2000/svg" xmlns:svg="http://www.w3.org/2000/svg" id="svg7384" width="16" height="16" version="1.1"><metadata id="metadata90"/><title id="title9167">Gnome Symbolic Icon Theme</title><defs id="defs7386"><clipPath id="clipPath6279-7-9" clipPathUnits="userSpaceOnUse"><rect id="rect6281-1-9" width="3.825" height="6.375" x="26.85" y="220.75" style="color:#bebebe;fill:#bebebe;fill-opacity:1;fill-rule:nonzero;stroke:none;stroke-width:2;marker:none;visibility:visible;display:inline;overflow:visible"/></clipPath><clipPath id="clipPath6265-3-4" clipPathUnits="userSpaceOnUse"><rect id="rect6267-1-9" width="2.898" height="5.216" x="26.966" y="221.33" style="color:#bebebe;fill:#bebebe;fill-opacity:1;fill-rule:nonzero;stroke:none;stroke-width:2;marker:none;visibility:visible;display:inline;overflow:visible"/></clipPath><clipPath id="clipPath6259-8-81" clipPathUnits="userSpaceOnUse"><rect id="rect6261-6-6" width="1.876" height="4.873" x="26.999" y="221.502" style="color:#bebebe;fill:#bebebe;fill-opacity:1;stroke:none;stroke-width:2;marker:none;visibility:visible;display:inline;overflow:visible"/></clipPath></defs><g id="layer9" transform="translate(-61.0002,-197)" style="display:inline"><path id="path5533" d="m 61.0002,202 2.484375,0 2.968754,-3 0.546871,0.0156 0,11 -0.475297,8.3e-4 L 63.484575,207 l -2.484375,0 0,-5 z" style="color:#bebebe;fill:#bebebe;fill-opacity:1;fill-rule:nonzero;stroke:none;stroke-width:1;marker:none;visibility:visible;display:inline;overflow:visible"/><path id="path3718-5" d="m 26.9375,220.40625 a 1.2751275,1.2751275 0 0 0 -0.65625,2.1875 c 0.757556,0.75756 0.757556,1.92994 0,2.6875 a 1.281631,1.281631 0 1 0 1.8125,1.8125 c 1.732036,-1.73204 1.732036,-4.58046 0,-6.3125 a 1.2751275,1.2751275 0 0 0 -1.15625,-0.375 z" clip-path="url(#clipPath6279-7-9)" transform="matrix(0.784314,0,0,0.784314,46.94138,28.862801)" style="font-size:medium;font-style:normal;font-variant:normal;font-weight:400;font-stretch:normal;text-indent:0;text-align:start;text-decoration:none;line-height:normal;letter-spacing:normal;word-spacing:normal;text-transform:none;direction:ltr;block-progression:tb;writing-mode:lr-tb;text-anchor:start;baseline-shift:baseline;color:#000;fill:#bebebe;fill-opacity:1;stroke:none;stroke-width:2.54999995;marker:none;visibility:visible;display:inline;overflow:visible;enable-background:accumulate;font-family:Sans;-inkscape-font-specification:Sans"/><path id="path3726-1" d="m 27.125,221.09375 a 0.57960298,0.57960298 0 0 0 -0.34375,1 c 1.023324,1.02332 1.023324,2.66418 0,3.6875 a 0.57960298,0.57960298 0 1 0 0.8125,0.8125 c 1.466269,-1.46627 1.466269,-3.84623 0,-5.3125 a 0.57960298,0.57960298 0 0 0 -0.46875,-0.1875 z" clip-path="url(#clipPath6265-3-4)" transform="matrix(1.72549,0,0,1.72549,23.4708,-181.902)" style="font-size:medium;font-style:normal;font-variant:normal;font-weight:400;font-stretch:normal;text-indent:0;text-align:start;text-decoration:none;line-height:normal;letter-spacing:normal;word-spacing:normal;text-transform:none;direction:ltr;block-progression:tb;writing-mode:lr-tb;text-anchor:start;baseline-shift:baseline;color:#000;fill:#bebebe;fill-opacity:1;stroke:none;stroke-width:1.15909004;marker:none;visibility:visible;display:inline;overflow:visible;enable-background:accumulate;font-family:Sans;-inkscape-font-specification:Sans"/><path id="path3728-0" d="m 27.0625,221.3125 a 0.3750375,0.3750375 0 0 0 -0.125,0.625 c 1.10149,1.10149 1.10149,2.89851 0,4 a 0.37565048,0.37565048 0 1 0 0.53125,0.53125 c 1.388102,-1.3881 1.388102,-3.6744 0,-5.0625 a 0.3750375,0.3750375 0 0 0 -0.40625,-0.0937 z" clip-path="url(#clipPath6259-8-81)" transform="matrix(2.66667,0,0,2.66667,2e-4,-392.666)" style="font-size:medium;font-style:normal;font-variant:normal;font-weight:400;font-stretch:normal;text-indent:0;text-align:start;text-decoration:none;line-height:normal;letter-spacing:normal;word-spacing:normal;text-transform:none;direction:ltr;block-progression:tb;writing-mode:lr-tb;text-anchor:start;baseline-shift:baseline;opacity:.35;color:#000;fill:#bebebe;fill-opacity:1;stroke:none;stroke-width:.75;marker:none;visibility:visible;display:inline;overflow:visible;enable-background:accumulate;font-family:Sans;-inkscape-font-specification:Sans"/></g></svg>