<svg xmlns="http://www.w3.org/2000/svg" xmlns:svg="http://www.w3.org/2000/svg" id="svg7384" width="16" height="16" version="1.1"><metadata id="metadata90"/><title id="title9167">Gnome Symbolic Icon Theme</title><g id="layer9" transform="translate(-81.0002,-217)" style="display:inline"><rect id="rect3743" width="2" height="5" x="228" y="86" transform="matrix(0,1,1,0,0,0)" style="fill:#bebebe;fill-opacity:1;stroke:none"/><path id="path3745" d="m 86.46875,217.03125 c -0.490327,0 -0.796068,0.22845 -1.03125,0.46875 C 85.202318,217.7403 85,218.05851 85,218.53125 L 85,219 l -1,0 -1,0 0,1 0,12 0,1 1,0 9,0 1,0 0,-1 0,-12 0,-1 -1,0 -1,0 0,-0.34375 0,-0.0312 c -0.02393,-0.4306 -0.170236,-0.75229 -0.40625,-1.03125 -0.223734,-0.26444 -0.626687,-0.52931 -1.15625,-0.53125 l 0,-0.0312 -0.0625,0 -3.90625,0 z m 0.53125,2 3,0 0,0.96875 0,1 1,0 1,0 0,10 -7,0 0,-10 1,0 1,0 0,-1 0,-0.96875 z" style="font-size:medium;font-style:normal;font-variant:normal;font-weight:400;font-stretch:normal;text-indent:0;text-align:start;text-decoration:none;line-height:normal;letter-spacing:normal;word-spacing:normal;text-transform:none;direction:ltr;block-progression:tb;writing-mode:lr-tb;text-anchor:start;baseline-shift:baseline;color:#bebebe;fill:#bebebe;fill-opacity:1;stroke:none;stroke-width:2;marker:none;visibility:visible;display:inline;overflow:visible;enable-background:accumulate;font-family:Sans;-inkscape-font-specification:Sans"/></g></svg>