<svg xmlns="http://www.w3.org/2000/svg" xmlns:svg="http://www.w3.org/2000/svg" id="svg7384" width="16" height="16" version="1.1"><metadata id="metadata90"/><title id="title9167">Gnome Symbolic Icon Theme</title><g id="layer9" transform="translate(-141,-217)" style="display:inline"><g id="g10518" transform="matrix(0,1,-1,0,393,197)" style="display:inline"><desc id="desc10524">Used when multiple batteries are installed and one is completely empty.</desc></g><path id="path3434" d="m 145,217 0,1 0,1 -1,0 -1,0 0,1 0,12 0,1 1,0 9,0 1,0 0,-1 0,-12 0,-1 -1,0 -1,0 c 0,0 0,0 0,-1 0,0 0,0 0,-1 -1,0 -1,0 -1,0 -1,0 -1,0 -1,0 l -4,0 -1,0 z m 2,2 3,0 0,1 0,1 1,0 1,0 0,10 -7,0 0,-10 1,0 1,0 0,-1 0,-1 z" style="font-size:medium;font-style:normal;font-variant:normal;font-weight:400;font-stretch:normal;text-indent:0;text-align:start;text-decoration:none;line-height:normal;letter-spacing:normal;word-spacing:normal;text-transform:none;direction:ltr;block-progression:tb;writing-mode:lr-tb;text-anchor:start;baseline-shift:baseline;color:#bebebe;fill:#bebebe;fill-opacity:1;stroke:none;stroke-width:2.003;marker:none;visibility:visible;display:inline;overflow:visible;enable-background:accumulate;font-family:Sans;-inkscape-font-specification:Sans"/></g></svg>