<svg xmlns="http://www.w3.org/2000/svg" xmlns:svg="http://www.w3.org/2000/svg" id="svg7384" width="16" height="16" version="1.1"><metadata id="metadata90"/><title id="title9167">Gnome Symbolic Icon Theme</title><g id="layer9" transform="translate(-161.0002,-217)" style="display:inline"><path id="rect6060" d="m 164.0002,222 0,2 5,0 0,-2 -5,0 z m 0,3 0,2 4,0 1,-1 0,-1 -5,0 z m 0,3.0625 0,1.9375 3,0 0,-1.9375 -3,0 z" style="fill:#bebebe;fill-opacity:1;stroke:none"/><path id="path6062" d="m 164.46875,217.03125 c -0.49033,0 -0.79607,0.22845 -1.03125,0.46875 -0.23518,0.2403 -0.4375,0.55851 -0.4375,1.03125 l 0,0.46875 -1,0 -1,0 0,1 0,12 0,1 1,0 7,0 0,-2 -6,0 0,-10 1,0 1,0 0,-1 0,-0.96875 3,0 0,0.96875 0,1 1,0 1,0 0,3 2,0 0,-4 0,-1 -1,0 -1,0 0,-0.34375 0,-0.0312 c -0.0239,-0.4306 -0.17024,-0.75229 -0.40625,-1.03125 -0.22373,-0.26444 -0.62669,-0.52931 -1.15625,-0.53125 l 0,-0.0312 -0.0625,0 -3.90625,0 z" style="font-size:medium;font-style:normal;font-variant:normal;font-weight:400;font-stretch:normal;text-indent:0;text-align:start;text-decoration:none;line-height:normal;letter-spacing:normal;word-spacing:normal;text-transform:none;direction:ltr;block-progression:tb;writing-mode:lr-tb;text-anchor:start;baseline-shift:baseline;color:#bebebe;fill:#bebebe;fill-opacity:1;stroke:none;stroke-width:2;marker:none;visibility:visible;display:inline;overflow:visible;enable-background:accumulate;font-family:Sans;-inkscape-font-specification:Sans"/><path id="path6217" d="m 171.75,224.98437 a 1.016466,1.016466 0 0 0 -0.46875,0.28125 l -3,3 A 1.0001,1.0001 0 0 0 168,229.17187 l 0,0.8125 1,0 2.125,0 -0.84375,1.28125 A 1.016466,1.016466 0 0 0 170,232.20312 l 0,0.78125 1,0 a 1.016466,1.016466 0 0 0 0.71875,-0.28125 l 3,-3 A 1.0001,1.0001 0 0 0 175,228.98437 a 1.0001,1.0001 0 0 0 0,-0.125 l 0,-0.875 -0.84375,0 -0.0937,0 a 1.0001,1.0001 0 0 0 -0.0625,0 l -2.125,0 0.84375,-1.28125 a 1.016466,1.016466 0 0 0 0.28125,-0.9375 l 0,-0.78125 -0.9375,0 a 1.016466,1.016466 0 0 0 -0.3125,0 z" style="font-size:medium;font-style:normal;font-variant:normal;font-weight:400;font-stretch:normal;text-indent:0;text-align:start;text-decoration:none;line-height:normal;letter-spacing:normal;word-spacing:normal;text-transform:none;direction:ltr;block-progression:tb;writing-mode:lr-tb;text-anchor:start;color:#bebebe;fill:#bebebe;fill-opacity:1;fill-rule:nonzero;stroke:none;stroke-width:2;marker:none;visibility:visible;display:inline;overflow:visible;enable-background:accumulate;font-family:Bitstream Vera Sans;-inkscape-font-specification:Bitstream Vera Sans"/><path id="path6253" d="m 170.0002,225 2,-2 -2,0 0,2 z" style="color:#bebebe;fill:#bebebe;fill-opacity:1;fill-rule:nonzero;stroke:none;stroke-width:2;marker:none;visibility:visible;display:inline;overflow:visible"/></g></svg>