<svg xmlns="http://www.w3.org/2000/svg" xmlns:svg="http://www.w3.org/2000/svg" id="svg7384" width="16" height="16" version="1.1"><metadata id="metadata90"/><title id="title9167">Gnome Symbolic Icon Theme</title><g id="layer9" transform="translate(-121.0002,-217)" style="display:inline"><path id="path3761" d="m 127,217 c -0.65625,0 -1,0.31232 -1,1 l 0,1 -3,0 0,14 8,0 0,-6 3,0 0,-8 -3,0 0,-1 c 0,-0.57813 -0.26546,-1 -0.96875,-1 L 127,217 z" style="opacity:.35;color:#bebebe;fill:#bebebe;fill-opacity:1;stroke:none;stroke-width:2;marker:none;visibility:visible;display:inline;overflow:visible"/><path id="path3761-2-3-5-4-8-9-8-9-9-0" d="m 132,228 1.375,0 1.125,1.09375 L 135.59375,228 137,228 l 0,1.46875 -1.09375,1.0625 L 137,231.59375 137,233 135.5625,233 134.5,231.9375 133.4375,233 132,233 l 0,-1.40625 1.0625,-1.0625 L 132,229.46875 132,228 z" style="color:#bebebe;fill:#bebebe;fill-opacity:1;stroke:none;stroke-width:2;marker:none;visibility:visible;display:inline;overflow:visible"/></g></svg>