<svg xmlns="http://www.w3.org/2000/svg" xmlns:svg="http://www.w3.org/2000/svg" id="svg7384" width="16" height="16.016" version="1.1"><metadata id="metadata90"/><title id="title9167">Gnome Symbolic Icon Theme</title><g id="layer9" transform="translate(-221.0002,-217)" style="display:inline"><path id="path6282" d="m 224.0002,228.06225 0,1.9375 3.00025,0 0,-2 z" style="fill:#bebebe;fill-opacity:1;stroke:none"/><path id="path6284" d="m 224.46875,217.03125 c -0.49033,0 -0.79607,0.22845 -1.03125,0.46875 -0.23518,0.2403 -0.4375,0.55851 -0.4375,1.03125 l 0,0.46875 -1,0 -1,0 0,1 0,12 0,1 1,0 7,0 0,-2 -6,0 0,-10 1,0 1,0 0,-1 0,-0.96875 3,0 0,0.96875 0,1 1,0 1,0 0,3 2,0 0,-4 0,-1 -1,0 -1,0 0,-0.34375 0,-0.0312 c -0.0239,-0.4306 -0.17024,-0.75229 -0.40625,-1.03125 -0.22373,-0.26444 -0.62669,-0.52931 -1.15625,-0.53125 l 0,-0.0312 -0.0625,0 -3.90625,0 z" style="font-size:medium;font-style:normal;font-variant:normal;font-weight:400;font-stretch:normal;text-indent:0;text-align:start;text-decoration:none;line-height:normal;letter-spacing:normal;word-spacing:normal;text-transform:none;direction:ltr;block-progression:tb;writing-mode:lr-tb;text-anchor:start;baseline-shift:baseline;color:#bebebe;fill:#bebebe;fill-opacity:1;stroke:none;stroke-width:2;marker:none;visibility:visible;display:inline;overflow:visible;enable-background:accumulate;font-family:Sans;-inkscape-font-specification:Sans"/><path id="path6288" d="m 231.875,225 a 1.0001,1.0001 0 0 0 -0.59375,0.28125 l -3,3 A 1.0001,1.0001 0 0 0 229,230 l 2.5625,0 -1.28125,1.28125 a 1.016466,1.016466 0 1 0 1.4375,1.4375 l 3,-3 A 1.0001,1.0001 0 0 0 234,228 l -2.5625,0 1.28125,-1.28125 A 1.0001,1.0001 0 0 0 231.875,225 z" style="font-size:medium;font-style:normal;font-variant:normal;font-weight:400;font-stretch:normal;text-indent:0;text-align:start;text-decoration:none;line-height:normal;letter-spacing:normal;word-spacing:normal;text-transform:none;direction:ltr;block-progression:tb;writing-mode:lr-tb;text-anchor:start;baseline-shift:baseline;color:#bebebe;fill:#bebebe;fill-opacity:1;fill-rule:nonzero;stroke:none;stroke-width:2;marker:none;visibility:visible;display:inline;overflow:visible;enable-background:accumulate;font-family:Sans;-inkscape-font-specification:Sans"/><rect id="rect6290" width="1" height="1" x="234" y="228" style="color:#bebebe;fill:#bebebe;fill-opacity:1;fill-rule:nonzero;stroke:none;stroke-width:2;marker:none;visibility:visible;display:inline;overflow:visible"/><rect id="rect6292" width="1" height="1" x="228" y="229" style="color:#bebebe;fill:#bebebe;fill-opacity:1;fill-rule:nonzero;stroke:none;stroke-width:2;marker:none;visibility:visible;display:inline;overflow:visible"/><rect id="rect6294" width="1" height="1" x="232" y="225" style="color:#bebebe;fill:#bebebe;fill-opacity:1;fill-rule:nonzero;stroke:none;stroke-width:2;marker:none;visibility:visible;display:inline;overflow:visible"/><rect id="rect6296" width="1" height="1" x="230" y="232" style="color:#bebebe;fill:#bebebe;fill-opacity:1;fill-rule:nonzero;stroke:none;stroke-width:2;marker:none;visibility:visible;display:inline;overflow:visible"/><path id="path6298" d="m 231.15625,225.4375 -2,3 1.6875,1.125 2,-3 -1.6875,-1.125 z" style="font-size:medium;font-style:normal;font-variant:normal;font-weight:400;font-stretch:normal;text-indent:0;text-align:start;text-decoration:none;line-height:normal;letter-spacing:normal;word-spacing:normal;text-transform:none;direction:ltr;block-progression:tb;writing-mode:lr-tb;text-anchor:start;baseline-shift:baseline;color:#bebebe;fill:#bebebe;fill-opacity:1;fill-rule:nonzero;stroke:none;stroke-width:2;marker:none;visibility:visible;display:inline;overflow:visible;enable-background:accumulate;font-family:Sans;-inkscape-font-specification:Sans"/><path id="path6300" d="m 232.15625,228.4375 -2,3 1.6875,1.125 2,-3 -1.6875,-1.125 z" style="font-size:medium;font-style:normal;font-variant:normal;font-weight:400;font-stretch:normal;text-indent:0;text-align:start;text-decoration:none;line-height:normal;letter-spacing:normal;word-spacing:normal;text-transform:none;direction:ltr;block-progression:tb;writing-mode:lr-tb;text-anchor:start;baseline-shift:baseline;color:#bebebe;fill:#bebebe;fill-opacity:1;fill-rule:nonzero;stroke:none;stroke-width:2;marker:none;visibility:visible;display:inline;overflow:visible;enable-background:accumulate;font-family:Sans;-inkscape-font-specification:Sans"/><path id="path6302" d="m 230.0002,225 2,-2 -2,0 0,2 z" style="color:#bebebe;fill:#bebebe;fill-opacity:1;fill-rule:nonzero;stroke:none;stroke-width:2;marker:none;visibility:visible;display:inline;overflow:visible"/></g></svg>