<svg xmlns="http://www.w3.org/2000/svg" xmlns:svg="http://www.w3.org/2000/svg" id="svg7384" width="16" height="16" version="1.1"><metadata id="metadata90"/><title id="title9167">Gnome Symbolic Icon Theme</title><g id="layer9" transform="translate(-61.0002,-317)" style="display:inline"><g id="g10845" transform="matrix(0.9944872,0,0,0.9944872,41.15182,62.433324)" style="opacity:.35;fill:#bebebe;fill-opacity:1;display:inline"><path id="path10847" d="M 67.875,317 A 1.0001,1.0001 0 0 0 67,318 l 0,3.5625 -1.28125,-1.28125 a 1.016466,1.016466 0 1 0 -1.4375,1.4375 L 67,324.4375 l 0,1.125 -2.71875,2.71875 a 1.016466,1.016466 0 1 0 1.4375,1.4375 L 67,328.4375 67,332 a 1.0001,1.0001 0 0 0 1.71875,0.71875 L 71,330.4375 71,327 l 1.4375,0 -2,-2 2.28125,-2.28125 a 1.0001,1.0001 0 0 0 0,-1.4375 l -4,-4 A 1.0001,1.0001 0 0 0 67.875,317 z M 69,320.4375 70.5625,322 69,323.5625 l 0,-3.125 z m 0,6 L 70.5625,328 69,329.5625 l 0,-3.125 z" transform="translate(-41.0002,-61.000001)" style="font-size:medium;font-style:normal;font-variant:normal;font-weight:400;font-stretch:normal;text-indent:0;text-align:start;text-decoration:none;line-height:normal;letter-spacing:normal;word-spacing:normal;text-transform:none;direction:ltr;block-progression:tb;writing-mode:lr-tb;text-anchor:start;color:#000;fill:#bebebe;fill-opacity:1;stroke:none;stroke-width:2;marker:none;visibility:visible;display:inline;overflow:visible;enable-background:accumulate;font-family:Bitstream Vera Sans;-inkscape-font-specification:Bitstream Vera Sans"/><rect id="rect10849" width="1" height="1" x="23" y="259" style="opacity:.98000004;fill:#bebebe;fill-opacity:1;stroke:none"/><rect id="rect10851" width="1" height="1" x="23" y="268" style="opacity:.98000004;fill:#bebebe;fill-opacity:1;stroke:none"/><rect id="rect10853" width="1" height="1" x="26" y="270.969" style="opacity:.98000004;fill:#bebebe;fill-opacity:1;stroke:none"/><rect id="rect10855" width="1" height="1" x="26" y="256.031" style="opacity:.98000004;fill:#bebebe;fill-opacity:1;stroke:none"/></g><path id="path3761-2-3-5-4-8-9-8-0-9" d="m 71.894714,327.89471 1.375,0 1.125,1.09375 1.09375,-1.09375 1.40625,0 0,1.46875 -1.09375,1.0625 1.09375,1.0625 0,1.40625 -1.4375,0 -1.0625,-1.0625 -1.0625,1.0625 -1.4375,0 0,-1.40625 1.0625,-1.0625 -1.0625,-1.0625 0,-1.46875 z" style="color:#bebebe;fill:#bebebe;fill-opacity:1;stroke:none;stroke-width:2;marker:none;visibility:visible;display:inline;overflow:visible"/></g></svg>