<svg xmlns="http://www.w3.org/2000/svg" xmlns:svg="http://www.w3.org/2000/svg" id="svg6688" width="256" height="184" version="1.1"><metadata id="metadata6693"/><g id="layer1" transform="translate(0,-868.36218)"><path style="fill:none;stroke:#000;stroke-width:6.46312332;stroke-linecap:butt;stroke-linejoin:miter;stroke-miterlimit:4;stroke-opacity:1;stroke-dasharray:none" id="path17610" d="m 137.49998,1008.8775 0,-119.6042"/><path style="color:#000;fill:#000;fill-opacity:1;fill-rule:nonzero;stroke:none;stroke-width:6;marker:none;visibility:visible;display:inline;overflow:visible;enable-background:accumulate" id="path17614" d="m 123.89569,896.36534 13.75,-13.75001 13.75001,13.75 z"/><path style="fill:none;stroke:#000;stroke-width:4;stroke-linecap:butt;stroke-linejoin:miter;stroke-miterlimit:4;stroke-opacity:1;stroke-dasharray:none" id="path17616" d="m 224.50003,994.4697 0,14 -203.00005,0"/><path style="font-size:medium;font-style:normal;font-variant:normal;font-weight:400;font-stretch:normal;text-indent:0;text-align:start;text-decoration:none;line-height:normal;letter-spacing:normal;word-spacing:normal;text-transform:none;direction:ltr;block-progression:tb;writing-mode:lr-tb;text-anchor:start;baseline-shift:baseline;color:#000;fill:#fff;fill-opacity:1;stroke:#000;stroke-width:1;stroke-miterlimit:4;stroke-opacity:1;stroke-dasharray:none;marker:none;visibility:visible;display:inline;overflow:visible;enable-background:accumulate;font-family:Sans;-inkscape-font-specification:Sans" id="path17612" d="m 140.22581,980.15154 a 5.0005001,5.0005001 0 0 1 4.6756,0.22337 l 29.71713,17.15909 a 5.0005001,5.0005001 0 0 1 0.17487,0.1155 l 2.219,1.2809 0.55771,-0.9715 -9.90573,-5.7197 a 5.0005001,5.0005001 0 0 1 -1.87199,-6.92998 5.0005001,5.0005001 0 0 1 6.86855,-1.72832 l 19.43447,11.224 4.33698,2.5119 -2.48476,4.3212 -4.78116,8.2813 -1.36931,2.3783 c -0.011,0.02 -0.0269,0.038 -0.0386,0.058 l -1.10396,1.9003 -14.4704,25.0616 c -1.68323,2.9154 -5.5864,3.9576 -8.50091,2.2778 l -10.57426,-6.1277 a 5.0005001,5.0005001 0 0 1 -0.20199,-0.1 l -0.10122,-0.051 -6.43927,-3.7156 a 5.0005001,5.0005001 0 0 1 -1.84501,-6.9456 5.0005001,5.0005001 0 0 1 6.36357,-1.978 l 0.48072,-0.8548 -5.17625,-2.9655 a 5.0005001,5.0005001 0 0 1 -1.84491,-6.9456 5.0005001,5.0005001 0 0 1 6.8415,-1.7127 l 5.17622,2.9655 0.64613,-1.1309 -5.1491,-2.981 a 5.0005001,5.0005001 0 0 1 -1.84491,-6.9456 5.0005001,5.0005001 0 0 1 6.8415,-1.7126 l 5.1491,2.981 0.67324,-1.1465 -22.79991,-13.17805 a 5.0005001,5.0005001 0 0 1 -1.82937,-6.91849 5.0005001,5.0005001 0 0 1 2.17732,-1.97876 z"/><g id="g17594" transform="matrix(-0.50000001,0.86602541,0.86602541,0.50000001,116.86869,714.16172)"><path id="path17596" d="m 159.45258,121.10255 0,34.29468" style="fill:none;stroke:#000;stroke-width:10;stroke-linecap:round;stroke-linejoin:miter;stroke-miterlimit:4;stroke-opacity:1;stroke-dasharray:none"/><path style="fill:none;stroke:#000;stroke-width:10;stroke-linecap:round;stroke-linejoin:miter;stroke-miterlimit:4;stroke-opacity:1;stroke-dasharray:none" id="path17598" d="m 170.76629,141.43187 0,13.96536"/><path id="path17600" d="m 182.08,141.43187 0,13.96536" style="fill:none;stroke:#000;stroke-width:10;stroke-linecap:round;stroke-linejoin:miter;stroke-miterlimit:4;stroke-opacity:1;stroke-dasharray:none"/><path style="fill:none;stroke:#000;stroke-width:10;stroke-linecap:round;stroke-linejoin:miter;stroke-miterlimit:4;stroke-opacity:1;stroke-dasharray:none" id="path17602" d="m 193.04016,147.97261 0,7.42462"/><path id="path17604" d="m 148.31565,146.73517 0,22.45064 9.54594,0 0,-6.01041 -7.6014,0" style="color:#000;fill:none;stroke:#000;stroke-width:10;stroke-linecap:round;stroke-linejoin:miter;stroke-miterlimit:4;stroke-opacity:1;stroke-dasharray:none;stroke-dashoffset:0;marker:none;visibility:visible;display:inline;overflow:visible;enable-background:accumulate"/><rect id="rect17606" width="33.588" height="16.794" x="159.453" y="152.392" rx="1.233" ry="1.233" style="color:#000;fill:#000;fill-opacity:1;stroke:#000;stroke-width:10;stroke-linecap:round;stroke-linejoin:miter;stroke-miterlimit:4;stroke-opacity:1;stroke-dasharray:none;stroke-dashoffset:0;marker:none;visibility:visible;display:inline;overflow:visible;enable-background:accumulate"/></g></g></svg>