<svg xmlns="http://www.w3.org/2000/svg" xmlns:svg="http://www.w3.org/2000/svg" id="svg6688" width="256" height="128" version="1.1"><metadata id="metadata6693"/><g id="layer1" transform="translate(0,-924.36218)"><g id="g7162" transform="translate(-12.1075,597.76911)"><g id="g17594" transform="matrix(0.86602541,0.50000001,-0.50000001,0.86602541,119.65736,178.78195)"><path style="fill:none;stroke:#000;stroke-width:10;stroke-linecap:round;stroke-linejoin:miter;stroke-miterlimit:4;stroke-opacity:1;stroke-dasharray:none" id="path17596" d="m 159.45258,121.10255 0,34.29468"/><path id="path17598" d="m 170.76629,141.43187 0,13.96536" style="fill:none;stroke:#000;stroke-width:10;stroke-linecap:round;stroke-linejoin:miter;stroke-miterlimit:4;stroke-opacity:1;stroke-dasharray:none"/><path style="fill:none;stroke:#000;stroke-width:10;stroke-linecap:round;stroke-linejoin:miter;stroke-miterlimit:4;stroke-opacity:1;stroke-dasharray:none" id="path17600" d="m 182.08,141.43187 0,13.96536"/><path id="path17602" d="m 193.04016,147.97261 0,7.42462" style="fill:none;stroke:#000;stroke-width:10;stroke-linecap:round;stroke-linejoin:miter;stroke-miterlimit:4;stroke-opacity:1;stroke-dasharray:none"/><path style="color:#000;fill:none;stroke:#000;stroke-width:10;stroke-linecap:round;stroke-linejoin:miter;stroke-miterlimit:4;stroke-opacity:1;stroke-dasharray:none;stroke-dashoffset:0;marker:none;visibility:visible;display:inline;overflow:visible;enable-background:accumulate" id="path17604" d="m 148.31565,146.73517 0,22.45064 9.54594,0 0,-6.01041 -7.6014,0"/><rect style="color:#000;fill:#000;fill-opacity:1;stroke:#000;stroke-width:10;stroke-linecap:round;stroke-linejoin:miter;stroke-miterlimit:4;stroke-opacity:1;stroke-dasharray:none;stroke-dashoffset:0;marker:none;visibility:visible;display:inline;overflow:visible;enable-background:accumulate" id="rect17606" width="33.588" height="16.794" x="159.453" y="152.392" rx="1.233" ry="1.233"/></g><g id="g17608" transform="matrix(0.86602541,0.50000001,-0.50000001,0.86602541,38.65736,178.78195)"><path style="fill:none;stroke:#000;stroke-width:6.46312332;stroke-linecap:butt;stroke-linejoin:miter;stroke-miterlimit:4;stroke-opacity:1;stroke-dasharray:none" id="path17610" d="M 114.6158,146.65068 238.98066,74.848602"/><path style="font-size:medium;font-style:normal;font-variant:normal;font-weight:400;font-stretch:normal;text-indent:0;text-align:start;text-decoration:none;line-height:normal;letter-spacing:normal;word-spacing:normal;text-transform:none;direction:ltr;block-progression:tb;writing-mode:lr-tb;text-anchor:start;baseline-shift:baseline;color:#000;fill:#fff;fill-opacity:1;stroke:#000;stroke-width:1;stroke-miterlimit:4;stroke-opacity:1;stroke-dasharray:none;marker:none;visibility:visible;display:inline;overflow:visible;enable-background:accumulate;font-family:Sans;-inkscape-font-specification:Sans" id="path17612" d="m 95.78125,234.59375 a 5.0005001,5.0005001 0 0 0 -3.9375,2.53125 L 74.6875,266.84375 a 5.0005001,5.0005001 0 0 0 -0.09375,0.1875 l -1.28125,2.21875 -0.96875,-0.5625 5.71875,-9.90625 a 5.0005001,5.0005001 0 0 0 -1.84375,-6.9375 5.0005001,5.0005001 0 0 0 -6.8125,1.9375 l -11.21875,19.4375 -2.5,4.34375 4.3125,2.5 8.28125,4.78125 2.375,1.375 c 0.01982,0.0118 0.0425,0.0197 0.0625,0.0312 l 1.90625,1.09375 25.0625,14.46875 c 2.91541,1.68322 6.81678,0.63416 8.5,-2.28125 l 6.09375,-10.59375 a 5.0005001,5.0005001 0 0 0 0.125,-0.1875 l 0.0625,-0.0937 3.71875,-6.4375 a 5.0005001,5.0005001 0 0 0 -1.875,-6.9375 5.0005001,5.0005001 0 0 0 -6.5,1.46875 l -0.84375,-0.5 3,-5.15625 a 5.0005001,5.0005001 0 0 0 -1.875,-6.9375 5.0005001,5.0005001 0 0 0 -6.78125,1.9375 l -3,5.15625 -1.125,-0.65625 2.96875,-5.15625 A 5.0005001,5.0005001 0 0 0 98.28125,258.5 5.0005001,5.0005001 0 0 0 91.5,260.4375 l -2.96875,5.15625 -1.15625,-0.65625 13.15625,-22.8125 a 5.0005001,5.0005001 0 0 0 -1.875,-6.90625 5.0005001,5.0005001 0 0 0 -2.875,-0.625 z" transform="matrix(0.86602539,-0.5,0.5,0.86602539,-43.683276,-38.346933)"/><path style="color:#000;fill:#000;fill-opacity:1;fill-rule:nonzero;stroke:none;stroke-width:6;marker:none;visibility:visible;display:inline;overflow:visible;enable-background:accumulate" id="path17614" d="m 231.23278,63.612955 18.78286,5.03285 -5.03285,18.782855 z"/></g><path id="path17616" d="m 79,351.09307 -14,0 0,79" style="fill:none;stroke:#000;stroke-width:4;stroke-linecap:butt;stroke-linejoin:miter;stroke-miterlimit:4;stroke-opacity:1;stroke-dasharray:none"/></g></g></svg>