<svg xmlns="http://www.w3.org/2000/svg" xmlns:svg="http://www.w3.org/2000/svg" id="svg2" width="15" height="15" stroke-miterlimit="10" style="font-style:normal;font-weight:400;font-size:12px;font-family:Dialog;color-interpolation:auto;fill:#000;fill-opacity:1;stroke:#000;stroke-width:1;stroke-linecap:square;stroke-linejoin:miter;stroke-miterlimit:10;stroke-dasharray:none;stroke-dashoffset:0;stroke-opacity:1;color-rendering:auto;image-rendering:auto;shape-rendering:auto;text-rendering:auto" font-size="12" font-style="normal" font-weight="normal" version="1.1"><metadata id="metadata13"/><path id="path4182" d="m 1.4722842,1.4722841 c -1.96304554,1.9630457 -1.96304566,5.17207 0,7.1351158 1.702736,1.7027361 4.340992,1.9217971 6.2923471,0.6706426 l 5.3992397,5.6817865 c 0.32949,0.329489 2.125447,-1.466468 1.795957,-1.795958 L 9.2926566,7.7370261 C 10.524766,5.7883395 10.3024,3.1672841 8.6073999,1.4722842 6.6443542,-0.49076139 3.4353298,-0.49076139 1.4722842,1.4722841 Z m 1.2584695,1.2584695 c 1.2825439,-1.2825439 3.3356326,-1.282544 4.6181768,1e-7 1.2825438,1.2825438 1.2825439,3.3356328 0,4.6181767 -1.282544,1.2825439 -3.3356329,1.282544 -4.6181768,10e-8 -1.2825442,-1.2825441 -1.282544,-3.335633 0,-4.6181769 z" style="color:#000;font-style:normal;font-variant:normal;font-weight:400;font-stretch:normal;font-size:medium;line-height:normal;font-family:Dialog;text-indent:0;text-align:start;text-decoration:none;text-decoration-line:none;text-decoration-style:solid;text-decoration-color:#000;letter-spacing:normal;word-spacing:normal;text-transform:none;direction:ltr;block-progression:tb;writing-mode:lr-tb;baseline-shift:baseline;text-anchor:start;white-space:normal;clip-rule:nonzero;display:inline;overflow:visible;visibility:visible;opacity:1;isolation:auto;mix-blend-mode:normal;color-interpolation:sRGB;color-interpolation-filters:linearRGB;solid-color:#000;solid-opacity:1;fill:#000;fill-opacity:1;fill-rule:nonzero;stroke:none;stroke-width:1.51450491;stroke-linecap:butt;stroke-linejoin:miter;stroke-miterlimit:4;stroke-dasharray:none;stroke-dashoffset:0;stroke-opacity:1;marker:none;color-rendering:auto;image-rendering:auto;shape-rendering:auto;text-rendering:auto;enable-background:accumulate"/></svg>