<svg xmlns="http://www.w3.org/2000/svg" xmlns:svg="http://www.w3.org/2000/svg" id="svg2" width="16" height="8" version="1.1" viewBox="0 0 16 8"><metadata id="metadata7"/><g id="text4136" transform="matrix(-0.7999976,0,0,0.7999976,169.46461,-324.85792)" style="font-style:normal;font-variant:normal;font-weight:400;font-stretch:normal;font-size:29.67358971px;line-height:125%;font-family:Arial;-inkscape-font-specification:Arial;letter-spacing:0;word-spacing:0;fill:#000;fill-opacity:1;stroke:none;stroke-width:1px;stroke-linecap:butt;stroke-linejoin:miter;stroke-opacity:1"><path id="path4141" d="m 191.83142,406.34068 q 0,-0.26706 0.20772,-0.26706 0.0297,0 0.089,0.0297 l 9.05044,4.80712 q 0.17805,0.089 0.17805,0.17805 0,0.089 -0.17805,0.17804 l -9.02077,4.80712 q -0.0593,0 -0.11869,0 -0.20772,0 -0.20772,-0.29674 l 0,-9.4362 z m 10.47478,0 q 0,-0.26706 0.20772,-0.26706 0.0297,0 0.089,0.0297 l 9.05044,4.80712 q 0.17804,0.089 0.17804,0.17805 0,0.089 -0.17804,0.17804 l -9.02077,4.80712 q -0.0593,0 -0.11869,0 -0.20772,0 -0.20772,-0.29674 l 0,-9.4362 z"/></g></svg>