<svg xmlns="http://www.w3.org/2000/svg" xmlns:svg="http://www.w3.org/2000/svg" id="svg2" width="16" height="8" version="1.1" viewBox="0 0 16 8"><metadata id="metadata7"/><path id="path4141" d="m 1.5604592e-5,0.21364878 q 0,-0.213647356688 0.166175505408,-0.213647356688 0.0237599,0 0.0711998,0.023759926688 L 7.4777212,3.8694458 q 0.1424395,0.0712 0.1424395,0.1424396 0,0.0712 -0.1424395,0.1424316 L 0.26112682,8.0000014 q -0.0474399,0 -0.0949517,0 -0.16617550535999,0 -0.16617550535999,-0.2373913 l 0,-7.54893732 z m 8.379798895408,0 q 0,-0.213647356688 0.1661755,-0.213647356688 0.02376,0 0.0712,0.023759926688 L 15.85752,3.8694458 q 0.142432,0.0712 0.142432,0.1424396 0,0.0712 -0.142432,0.1424316 L 8.6409257,8.0000014 q -0.04744,0 -0.094952,0 -0.1661755,0 -0.1661755,-0.2373913 l 0,-7.54893732 z" style="font-style:normal;font-variant:normal;font-weight:400;font-stretch:normal;font-size:medium;line-height:125%;font-family:Arial;-inkscape-font-specification:Arial;letter-spacing:0;word-spacing:0;fill:#000;fill-opacity:1;stroke:none;stroke-width:1px;stroke-linecap:butt;stroke-linejoin:miter;stroke-opacity:1"/></svg>