<svg xmlns="http://www.w3.org/2000/svg" xmlns:svg="http://www.w3.org/2000/svg" id="svg2" width="10.445" height="15" stroke-miterlimit="10" style="font-style:normal;font-weight:400;font-size:12px;font-family:Dialog;color-interpolation:auto;fill:#000;fill-opacity:1;stroke:#000;stroke-width:1;stroke-linecap:square;stroke-linejoin:miter;stroke-miterlimit:10;stroke-dasharray:none;stroke-dashoffset:0;stroke-opacity:1;color-rendering:auto;image-rendering:auto;shape-rendering:auto;text-rendering:auto" font-size="12" font-style="normal" font-weight="normal" version="1.1"><metadata id="metadata13"/><path id="path9" d="m 0,0 0,15 10.444866,0 0,-15 L 0,0 Z m 1.4199241,1.7568553 7.6028297,0 0,2.5357351 -7.6028297,0 0,-2.5357351 z m 0,4.1109976 1.5993291,0 0,1.2317678 -1.5993291,0 0,-1.2317678 z m 3.0039383,0 1.5971411,0 0,1.2317678 -1.5971411,0 0,-1.2317678 z m 3.0017501,0 1.5971413,0 0,1.2317678 -1.5971413,0 0,-1.2317678 z m -6.0056884,2.0084598 1.5993291,0 0,1.2317678 -1.5993291,0 0,-1.2317678 z m 3.0039383,0 1.5971411,0 0,1.2317678 -1.5971411,0 0,-1.2317678 z m 3.0017501,0 1.5971413,0 0,1.2317678 -1.5971413,0 0,-1.2317678 z m -6.0056884,2.0084598 1.5993291,0 0,1.2339555 -1.5993291,0 0,-1.2339555 z m 3.0039383,0 1.5971411,0 0,1.2339555 -1.5971411,0 0,-1.2339555 z m 3.0017501,0 1.5971413,0 0,1.2339555 -1.5971413,0 0,-1.2339555 z m -6.0056884,2.0106475 1.5993291,0 0,1.231768 -1.5993291,0 0,-1.231768 z m 3.0039383,0 1.5971411,0 0,1.231768 -1.5971411,0 0,-1.231768 z m 3.0017501,0 1.5971413,0 0,1.231768 -1.5971413,0 0,-1.231768 z" style="fill:#000;stroke:none"/></svg>