<svg xmlns="http://www.w3.org/2000/svg" xmlns:svg="http://www.w3.org/2000/svg" id="svg2" width="15" height="11.684" stroke-miterlimit="10" style="font-style:normal;font-weight:400;font-size:12px;font-family:Dialog;color-interpolation:auto;fill:#000;fill-opacity:1;stroke:#000;stroke-width:1;stroke-linecap:square;stroke-linejoin:miter;stroke-miterlimit:10;stroke-dasharray:none;stroke-dashoffset:0;stroke-opacity:1;color-rendering:auto;image-rendering:auto;shape-rendering:auto;text-rendering:auto" font-size="12" font-style="normal" font-weight="normal" version="1.1"><metadata id="metadata13"/><g id="g5" transform="matrix(0.05614035,0,0,0.05614035,-1.365788,-4.4842105)"><g id="g7"><path style="stroke:none" id="path9" d="m 291.5156,288 -267.1875,0 0,-158.98531 c 0,-11.625 5.765633,-17.4375 17.2969,-17.4375 l 8.0156,0 c 6.843733,0 11.0156,-3.09373 12.5156,-9.2812 l 1.4063,-9.62409 c 1.593733,-6.281267 4.0781,-10.125033 7.4531,-11.5313 1.9688,-0.843733 6.890667,-1.2656 14.7656,-1.2656 l 54,0 c 6.4688,0 10.78133,0.468733 12.9376,1.4062 3.37493,1.406267 5.71867,4.7344 7.0312,9.9844 l 1.5469,10.04599 c 1.31247,4.96873 3.04683,8.0156 5.2031,9.1406 1.40627,0.75 5.06253,1.125 10.9688,1.125 l 96.8906,0 c 6.56247,0 11.06247,1.2422 13.5,3.7266 2.43747,2.48433 3.6562,7.00777 3.6562,13.5703 z"/></g></g></svg>