<svg xmlns="http://www.w3.org/2000/svg" xmlns:svg="http://www.w3.org/2000/svg" id="svg7384" width="16" height="16" version="1.1"><metadata id="metadata90"/><title id="title9167">Gnome Symbolic Icon Theme</title><g id="layer9" transform="translate(-141.0002,-257)" style="display:inline"><g id="g4339" transform="translate(21.0002,-18.999999)" style="opacity:.35;display:inline"><path id="rect4162" d="m 120.02185,285 0,3 0,3 1,0 2,0 0,-3 -2,0 0,-3 -1,0 z" style="color:#bebebe;fill:#bebebe;fill-opacity:1;fill-rule:nonzero;stroke:none;stroke-width:3;marker:none;visibility:visible;display:inline;overflow:visible"/><path id="rect4162-9" d="m 131.99975,276.0221 0,7 2,0 0,5 -2,0 0,3 3,0 0,-3 0,-5 0,-1 0,-6 -3,0 z" style="color:#bebebe;fill:#bebebe;fill-opacity:1;fill-rule:nonzero;stroke:none;stroke-width:3;marker:none;visibility:visible;display:inline;overflow:visible"/><path id="rect4162-92" d="m 123.99975,288 0,3 3,0 0,-3 -3,0 z" style="color:#bebebe;fill:#bebebe;fill-opacity:1;fill-rule:nonzero;stroke:none;stroke-width:3;marker:none;visibility:visible;display:inline;overflow:visible"/><path id="rect4162-92-3" d="m 127.99975,288 0,3 3,0 0,-3 -3,0 z" style="color:#bebebe;fill:#bebebe;fill-opacity:1;fill-rule:nonzero;stroke:none;stroke-width:3;marker:none;visibility:visible;display:inline;overflow:visible"/><path id="rect4162-92-5" d="m 123.99975,282 0,1 3,0 0,-1 -3,0 z" style="color:#bebebe;fill:#bebebe;fill-opacity:1;fill-rule:nonzero;stroke:none;stroke-width:3;marker:none;visibility:visible;display:inline;overflow:visible"/><path id="rect4162-92-3-0" d="m 127.99975,279 0,4 3,0 0,-4 -3,0 z" style="color:#bebebe;fill:#bebebe;fill-opacity:1;fill-rule:nonzero;stroke:none;stroke-width:3;marker:none;visibility:visible;display:inline;overflow:visible"/></g><path id="path4955-3" d="m 29,209 a 1,1 0 1 1 -2,0 1,1 0 1 1 2,0 z" transform="matrix(1.5,0,0,1.5,102.5,-46.999999)" style="fill:#bebebe;fill-opacity:1;stroke:none;display:inline"/><path id="path4957-3" d="m 29,209 a 1,1 0 1 1 -2,0 1,1 0 1 1 2,0 z" transform="matrix(1.5,0,0,1.5,106.5,-46.999999)" style="fill:#bebebe;fill-opacity:1;stroke:none;display:inline"/><path id="path4959-7" d="m 29,209 a 1,1 0 1 1 -2,0 1,1 0 1 1 2,0 z" transform="matrix(1.5,0,0,1.5,110.49995,-46.999999)" style="fill:#bebebe;fill-opacity:1;stroke:none;display:inline"/></g></svg>