<svg xmlns="http://www.w3.org/2000/svg" xmlns:svg="http://www.w3.org/2000/svg" id="svg7384" width="16" height="16" version="1.1"><metadata id="metadata90"/><title id="title9167">Gnome Symbolic Icon Theme</title><g id="layer9" transform="translate(-161.0002,-177)" style="display:inline"><path id="path4194" d="m 29,209 a 1,1 0 1 1 -2,0 1,1 0 1 1 2,0 z" transform="matrix(1.5,0,0,1.5,126.5002,-124)" style="fill:#bebebe;fill-opacity:1;stroke:none;display:inline"/><path id="path4196" d="m 168.0002,179.03125 0,0.96875 1,0 0,-0.9375 c -0.33513,-0.0249 -0.66549,-0.04 -1,-0.0312 z m 1,0.96875 0,1 1,0 0,-1 z m 1,0 1,0 0,-0.59375 c -0.32368,-0.0906 -0.66802,-0.16063 -1,-0.21875 z m 1,0 0,1 1,0 0,-1 z m 1,0 0.5625,0 c -0.18106,-0.0863 -0.3754,-0.17503 -0.5625,-0.25 z m 0,1 0,1 1,0 0,-1 z m 1,0 1,0 0,-0.125 c -0.32384,-0.24122 -0.64126,-0.46102 -1,-0.65625 z m 1,0 0,1 0.96875,0 0,-0.3125 c -0.23982,-0.24809 -0.50857,-0.47247 -0.78125,-0.6875 z m 0,1 -1,0 0,1 1,0 z m 0,1 z m -1,0 -1,0 0,1 1,0 z m 0,1 z m -1,0 -1,0 0,1 1,0 z m 0,1 z m -1,0 -1,0 0,1 1,0 z m 0,1 z m -1,0 -1,0 0,0.9375 1,0 z m -1,0 0,-1 -1,0 0,1 z m -1,0 -1,0 0,0.9375 1,0 z m -1,0 0,-1 -1,0 0,1 z m -1,0 z m 0,-1 0,-1 -1,0 0,1 z m -1,0 z m 0,-1 0,-1 -1,0 0,1 z m -1,0 z m 0,-1 0,-1 -1,0 0,1 z m -1,0 z m 0,-1 0,-1 -0.28125,0 c -0.22994,0.20986 -0.45439,0.44281 -0.65625,0.6875 l 0,0.3125 z m 0,-1 1,0 0,-0.9375 c -0.35691,0.20127 -0.68209,0.45781 -1,0.71875 z m 1,0 0,1 1,0 0,-1 z m 1,0 1,0 0,-1 -1,0 z m 0,-1 0,-0.40625 c -0.307,0.11822 -0.58708,0.25092 -0.875,0.40625 z m 1,0 1,0 0,-0.875 c -0.33626,0.0441 -0.67368,0.0756 -1,0.15625 z m 1,0 0,1 1,0 0,-1 z m 1,1 0,1 1,0 0,-1 z m 1,1 0,1 1,0 0,-1 z m 1,0 1,0 0,-1 -1,0 z m 1,0 0,1 1,0 0,-1 z m 0,1 -1,0 0,1 1,0 z m -1,1 -1,0 0,1 1,0 z m -1,0 0,-1 -1,0 0,1 z m -1,0 -1,0 0,1 1,0 z m -1,0 0,-1 -1,0 0,1 z m -1,-1 0,-1 -1,0 0,1 z m 0,-1 1,0 0,-1 -1,0 z m 1,0 0,1 1,0 0,-1 z" style="opacity:.35;color:#000;fill:#bebebe;fill-opacity:1;fill-rule:nonzero;stroke:none;stroke-width:1px;marker:none;visibility:visible;display:inline;overflow:visible;enable-background:accumulate"/></g></svg>