<svg xmlns="http://www.w3.org/2000/svg" xmlns:svg="http://www.w3.org/2000/svg" id="svg7384" width="16" height="16" version="1.1"><metadata id="metadata90"/><title id="title9167">Gnome Symbolic Icon Theme</title><g id="layer9" transform="translate(-161.0002,-197)" style="display:inline"><path id="rect12689-2" d="m 165.7502,197 c -0.9522,0 -1.75,0.7978 -1.75,1.75 l 0,4.5 c 0,0.26247 0.0485,0.52447 0.15625,0.75 l 10.6875,0 c 0.10776,-0.22553 0.15625,-0.48753 0.15625,-0.75 l 0,-4.5 c 0,-0.9522 -0.7978,-1.75 -1.75,-1.75 l -7.5,0 z m 0.25,2 7,0 0,4 -7,0 0,-4 z m 2,9.9375 0,1.0625 -5,0 0,2 13,0 0,-2 -5,0 0,-1.0625 -3,0 z" style="font-size:medium;font-style:normal;font-variant:normal;font-weight:400;font-stretch:normal;text-indent:0;text-align:start;text-decoration:none;line-height:normal;letter-spacing:normal;word-spacing:normal;text-transform:none;direction:ltr;text-anchor:start;opacity:.35;color:#bebebe;fill:#bebebe;fill-opacity:1;fill-rule:nonzero;stroke:none;stroke-width:2;marker:none;visibility:visible;display:inline;overflow:visible;font-family:Bitstream Vera Sans"/><path id="path4955-1" d="m 29,209 a 1,1 0 1 1 -2,0 1,1 0 1 1 2,0 z" transform="matrix(1.5,0,0,1.5,123.5,-107)" style="fill:#bebebe;fill-opacity:1;stroke:none;display:inline"/><path id="path4957-2" d="m 29,209 a 1,1 0 1 1 -2,0 1,1 0 1 1 2,0 z" transform="matrix(1.5,0,0,1.5,127.5,-107)" style="fill:#bebebe;fill-opacity:1;stroke:none;display:inline"/><path id="path4959-4" d="m 29,209 a 1,1 0 1 1 -2,0 1,1 0 1 1 2,0 z" transform="matrix(1.5,0,0,1.5,131.49995,-107)" style="fill:#bebebe;fill-opacity:1;stroke:none;display:inline"/></g></svg>