<svg xmlns="http://www.w3.org/2000/svg" xmlns:svg="http://www.w3.org/2000/svg" id="svg7384" width="16" height="16" version="1.1"><metadata id="metadata90"/><title id="title9167">Gnome Symbolic Icon Theme</title><g id="layer9" transform="translate(-321,-177)" style="display:inline"><g id="g4172-7-1-0" transform="translate(301.0002,-39.999999)" style="opacity:.35;display:inline"><g id="g4166-5-5-6"><path id="rect12675-3-8-70-9-8" d="m 262.75,201 c -0.9522,0 -1.75,0.7978 -1.75,1.75 l 0,4.5 c 0,0.9522 0.7978,1.75 1.75,1.75 l 0.125,0 -1.5,3 8.375,0 c -0.47028,-0.71122 -0.75,-1.57993 -0.75,-2.5 0,-1.57293 0.78412,-2.94603 2,-3.75 l 0,-3 c 0,-0.9522 -0.7978,-1.75 -1.75,-1.75 l -6.5,0 z m 0.25,2 6,0 0,4 -6,0 0,-4 z" transform="translate(-241.0002,19.999999)" style="font-size:medium;font-style:normal;font-variant:normal;font-weight:400;font-stretch:normal;text-indent:0;text-align:start;text-decoration:none;line-height:normal;letter-spacing:normal;word-spacing:normal;text-transform:none;direction:ltr;block-progression:tb;writing-mode:lr-tb;text-anchor:start;color:#bebebe;fill:#bebebe;fill-opacity:1;stroke:none;stroke-width:2;marker:none;visibility:visible;display:inline;overflow:visible;enable-background:accumulate;font-family:Bitstream Vera Sans;-inkscape-font-specification:Bitstream Vera Sans"/></g><path id="rect12675-3-8-5-2-9-9" d="m 268.75,198 c -0.9522,0 -1.75,0.7978 -1.75,1.75 l 0,0.25 2,0 0.25,0 5.75,0 0,4 -3,0 0,1.28125 C 272.47302,205.11319 272.96792,205 273.5,205 c 0.9511,0 1.83733,0.31273 2.5625,0.8125 C 276.62201,205.51741 277,204.91532 277,204.25 l 0,-4.5 c 0,-0.9522 -0.7978,-1.75 -1.75,-1.75 l -6.5,0 z" transform="translate(-241.0002,19.999999)" style="font-size:medium;font-style:normal;font-variant:normal;font-weight:400;font-stretch:normal;text-indent:0;text-align:start;text-decoration:none;line-height:normal;letter-spacing:normal;word-spacing:normal;text-transform:none;direction:ltr;text-anchor:start;color:#bebebe;fill:#bebebe;fill-opacity:1;stroke:none;stroke-width:2;marker:none;visibility:visible;display:inline;overflow:visible;font-family:Andale Mono"/></g><path id="path3482" d="m 333.5,186 c -1.93299,0 -3.5,1.56701 -3.5,3.5 0,1.93299 1.56701,3.5 3.5,3.5 1.93299,0 3.5,-1.56701 3.5,-3.5 0,-1.93299 -1.56701,-3.5 -3.5,-3.5 z m -2.5,2.96875 5,0 0,1.03125 -5,0 0,-1.03125 z" class="error" style="color:#bebebe;fill:#ef2929;fill-opacity:1;fill-rule:nonzero;stroke:none;stroke-width:1.90939796;marker:none;visibility:visible;display:inline;overflow:visible;enable-background:accumulate"/></g></svg>