<svg xmlns="http://www.w3.org/2000/svg" xmlns:svg="http://www.w3.org/2000/svg" id="svg7384" width="16" height="16" version="1.1"><metadata id="metadata90"/><title id="title9167">Gnome Symbolic Icon Theme</title><defs id="defs7386"><clipPath id="clipPath6259-6-8-2-1-6-6" clipPathUnits="userSpaceOnUse"><rect id="rect6261-4-9-2-0-9-0" width="1.876" height="4.873" x="26.999" y="221.502" style="color:#bebebe;fill:#bebebe;fill-opacity:1;stroke:none;stroke-width:2;marker:none;visibility:visible;display:inline;overflow:visible"/></clipPath><clipPath id="clipPath3157-7-0" clipPathUnits="userSpaceOnUse"><rect id="rect3159-5-5" width="1.739" height="5.216" x="28.125" y="221.33" style="color:#bebebe;fill:#bebebe;fill-opacity:1;fill-rule:nonzero;stroke:none;stroke-width:2;marker:none;visibility:visible;display:inline;overflow:visible"/></clipPath></defs><g id="layer9" transform="translate(-141.0002,-177)" style="display:inline"><path id="path4175" d="m 29,209 a 1,1 0 1 1 -2,0 1,1 0 1 1 2,0 z" transform="matrix(1.5,0,0,1.5,106.5002,-124)" style="opacity:.35;fill:#bebebe;fill-opacity:1;stroke:none;display:inline"/><path id="path4181" d="m 27.0625,221.3125 a 0.3750375,0.3750375 0 0 0 -0.125,0.625 c 1.10149,1.10149 1.10149,2.89851 0,4 a 0.37565048,0.37565048 0 1 0 0.53125,0.53125 c 1.388102,-1.3881 1.388102,-3.6744 0,-5.0625 a 0.3750375,0.3750375 0 0 0 -0.40625,-0.0937 z" clip-path="url(#clipPath6259-6-8-2-1-6-6)" transform="matrix(0,-2.66667,2.66667,0,-448.6658,255)" style="font-size:medium;font-style:normal;font-variant:normal;font-weight:400;font-stretch:normal;text-indent:0;text-align:start;text-decoration:none;line-height:normal;letter-spacing:normal;word-spacing:normal;text-transform:none;direction:ltr;block-progression:tb;writing-mode:lr-tb;text-anchor:start;baseline-shift:baseline;opacity:.35;color:#000;fill:#bebebe;fill-opacity:1;stroke:none;stroke-width:.75;marker:none;visibility:visible;display:inline;overflow:visible;enable-background:accumulate;font-family:Sans;-inkscape-font-specification:Sans"/><path id="path4955" d="m 29,209 a 1,1 0 1 1 -2,0 1,1 0 1 1 2,0 z" transform="matrix(1.5,0,0,1.5,102.4999,-128)" style="fill:#bebebe;fill-opacity:1;stroke:none;display:inline"/><path id="path4957" d="m 29,209 a 1,1 0 1 1 -2,0 1,1 0 1 1 2,0 z" transform="matrix(1.5,0,0,1.5,106.4999,-128)" style="fill:#bebebe;fill-opacity:1;stroke:none;display:inline"/><path id="path4959" d="m 29,209 a 1,1 0 1 1 -2,0 1,1 0 1 1 2,0 z" transform="matrix(1.5,0,0,1.5,110.4999,-128)" style="fill:#bebebe;fill-opacity:1;stroke:none;display:inline"/><path id="path3745-5-4-5-6" d="m 27.125,221.09375 a 0.57960298,0.57960298 0 0 0 -0.34375,1 c 1.023324,1.02332 1.023324,2.66418 0,3.6875 a 0.57960298,0.57960298 0 1 0 0.8125,0.8125 c 1.466269,-1.46627 1.466269,-3.84623 0,-5.3125 a 0.57960298,0.57960298 0 0 0 -0.46875,-0.1875 z" clip-path="url(#clipPath3157-7-0)" transform="matrix(0,-1.72549,1.72549,0,-237.9018,231.529)" style="font-size:medium;font-style:normal;font-variant:normal;font-weight:400;font-stretch:normal;text-indent:0;text-align:start;text-decoration:none;line-height:normal;letter-spacing:normal;word-spacing:normal;text-transform:none;direction:ltr;block-progression:tb;writing-mode:lr-tb;text-anchor:start;baseline-shift:baseline;opacity:.35;color:#000;fill:#bebebe;fill-opacity:1;stroke:none;stroke-width:1.15909004;marker:none;visibility:visible;display:inline;overflow:visible;enable-background:accumulate;font-family:Sans;-inkscape-font-specification:Sans"/></g></svg>