<svg xmlns="http://www.w3.org/2000/svg" xmlns:svg="http://www.w3.org/2000/svg" id="svg7384" width="16" height="16" version="1.1"><metadata id="metadata90"/><title id="title9167">Gnome Symbolic Icon Theme</title><g id="layer9" transform="translate(-241.0002,-237)" style="display:inline"><g id="g5019" transform="translate(40.0002,-272)" style="opacity:.35"><path id="path4998" d="m 208.99975,521.1 0,0.9" style="color:#bebebe;fill:#bebebe;fill-opacity:1;fill-rule:nonzero;stroke:#bebebe;stroke-width:2;stroke-linecap:butt;stroke-linejoin:miter;stroke-miterlimit:4;stroke-opacity:1;stroke-dasharray:none;stroke-dashoffset:0;marker:none;visibility:visible;display:inline;overflow:visible"/><path id="path5000" d="m 202.99975,523 12,0" style="color:#bebebe;fill:#bebebe;fill-opacity:1;fill-rule:nonzero;stroke:#bebebe;stroke-width:2;stroke-linecap:butt;stroke-linejoin:miter;stroke-miterlimit:4;stroke-opacity:1;stroke-dasharray:none;stroke-dashoffset:0;marker:none;visibility:visible;display:inline;overflow:visible"/><rect id="rect5002" width="8" height="1.938" x="205" y="514" ry="0" style="color:#bebebe;fill:#bebebe;fill-opacity:1;fill-rule:nonzero;stroke:none;stroke-width:1;marker:none;visibility:visible;display:inline;overflow:visible"/><path id="path5004" d="m 208.99977,510.00041 c -1.64501,0 -3,1.355 -3,3 l 0,2 0,1.00001 1,0 4,0 1,0 0,-1.00001 0,-2 c 0,-1.645 -1.35499,-3 -3,-3 z m 0,2 c 0.56413,0 1,0.43588 1,1 l 0,1 -2,0 0,-1 c 0,-0.56412 0.43587,-1 1,-1 z" style="font-size:medium;font-style:normal;font-variant:normal;font-weight:400;font-stretch:normal;text-indent:0;text-align:start;text-decoration:none;line-height:normal;letter-spacing:normal;word-spacing:normal;text-transform:none;direction:ltr;block-progression:tb;writing-mode:lr-tb;text-anchor:start;baseline-shift:baseline;color:#bebebe;fill:#bebebe;fill-opacity:1;stroke:none;stroke-width:3;marker:none;visibility:visible;display:inline;overflow:visible;enable-background:accumulate;font-family:Sans;-inkscape-font-specification:Sans"/></g><path id="path4955-1-1" d="m 29,209 a 1,1 0 1 1 -2,0 1,1 0 1 1 2,0 z" transform="matrix(1.5,0,0,1.5,202.51323,-66.97658)" style="fill:#bebebe;fill-opacity:1;stroke:none;display:inline"/><path id="path4957-2-6" d="m 29,209 a 1,1 0 1 1 -2,0 1,1 0 1 1 2,0 z" transform="matrix(1.5,0,0,1.5,206.51323,-66.97658)" style="fill:#bebebe;fill-opacity:1;stroke:none;display:inline"/><path id="path4959-4-4" d="m 29,209 a 1,1 0 1 1 -2,0 1,1 0 1 1 2,0 z" transform="matrix(1.5,0,0,1.5,210.51318,-66.97658)" style="fill:#bebebe;fill-opacity:1;stroke:none;display:inline"/></g></svg>