<svg xmlns="http://www.w3.org/2000/svg" xmlns:svg="http://www.w3.org/2000/svg" id="svg7384" width="16" height="16" version="1.1"><metadata id="metadata90"/><title id="title9167">Gnome Symbolic Icon Theme</title><g id="layer9" transform="translate(-260.99995,-177)" style="display:inline"><g id="g4465" transform="translate(241.0002,-39.999999)"><path id="rect12675-3-8-5-09" d="m 27.749746,218 c -0.9522,0 -1.75,0.7978 -1.75,1.75 l 0,0.25 2,0 0.25,0 5.75,0 0,4 -3,0 0,3.25 c 0,0.6591 -0.25164,1.26982 -0.65625,1.75 l 5.28125,0 -1.5,-3 0.125,0 c 0.9522,0 1.75,-0.7978 1.75,-1.75 l 0,-4.5 c 0,-0.9522 -0.7978,-1.75 -1.75,-1.75 l -6.5,0 z" style="font-size:medium;font-style:normal;font-variant:normal;font-weight:400;font-stretch:normal;text-indent:0;text-align:start;text-decoration:none;line-height:normal;letter-spacing:normal;word-spacing:normal;text-transform:none;direction:ltr;text-anchor:start;opacity:.35;color:#bebebe;fill:#bebebe;fill-opacity:1;stroke:none;stroke-width:2;marker:none;visibility:visible;display:inline;overflow:visible;font-family:Andale Mono"/><path id="rect12675-3-8-5-0" d="m 21.74975,221 c -0.9522,0 -1.75,0.7978 -1.75,1.75 l 0,4.5 c 0,0.9522 0.7978,1.75 1.75,1.75 l 0.125,0 -1.5,3 9.25,0 -1.5,-3 0.125,0 c 0.9522,0 1.75,-0.7978 1.75,-1.75 l 0,-4.5 c 0,-0.9522 -0.7978,-1.75 -1.75,-1.75 l -6.5,0 z m 0.25,2 6,0 0,4 -6,0 0,-4 z" style="font-size:medium;font-style:normal;font-variant:normal;font-weight:400;font-stretch:normal;text-indent:0;text-align:start;text-decoration:none;line-height:normal;letter-spacing:normal;word-spacing:normal;text-transform:none;direction:ltr;text-anchor:start;color:#bebebe;fill:#bebebe;fill-opacity:1;stroke:none;stroke-width:2;marker:none;visibility:visible;display:inline;overflow:visible;font-family:Andale Mono"/></g></g></svg>