<svg xmlns="http://www.w3.org/2000/svg" xmlns:svg="http://www.w3.org/2000/svg" id="svg7384" width="16" height="16" version="1.1"><metadata id="metadata90"/><title id="title9167">Gnome Symbolic Icon Theme</title><g id="layer9" transform="translate(-361.0002,-177)" style="display:inline"><path id="path4215" d="m 364,184 c -0.554,0 -1,0.446 -1,1 l 0,0.53125 0,5.46875 12,0 0,-5.46875 L 375,185 c 0,-0.554 -0.446,-1 -1,-1 l -10,0 z" style="color:#bebebe;fill:#bebebe;fill-opacity:1;fill-rule:nonzero;stroke:none;stroke-width:2;marker:none;visibility:visible;display:inline;overflow:visible"/><path id="rect4217" d="m 368,178 c -1.6447,0 -3,1.3553 -3,3 l 0,7 c 0,1.6447 1.3553,3 3,3 l 2,0 c 1.6447,0 3,-1.3553 3,-3 l 0,-7 c 0,-1.6447 -1.3553,-3 -3,-3 l -2,0 z m 0,2 2,0 c 0.5713,0 1,0.4287 1,1 l 0,7 c 0,0.5713 -0.4287,1 -1,1 l -2,0 c -0.5713,0 -1,-0.4287 -1,-1 l 0,-7 c 0,-0.5713 0.4287,-1 1,-1 z" style="font-size:medium;font-style:normal;font-variant:normal;font-weight:400;font-stretch:normal;text-indent:0;text-align:start;text-decoration:none;line-height:normal;letter-spacing:normal;word-spacing:normal;text-transform:none;direction:ltr;block-progression:tb;writing-mode:lr-tb;text-anchor:start;baseline-shift:baseline;color:#bebebe;fill:#bebebe;fill-opacity:1;stroke:none;stroke-width:2;marker:none;visibility:visible;display:inline;overflow:visible;enable-background:accumulate;font-family:Sans;-inkscape-font-specification:Sans"/></g></svg>