<svg xmlns="http://www.w3.org/2000/svg" xmlns:svg="http://www.w3.org/2000/svg" id="svg7384" width="16" height="16" version="1.1"><metadata id="metadata90"/><title id="title9167">Gnome Symbolic Icon Theme</title><g id="layer9" transform="translate(-201.0002,-177)" style="display:inline"><g id="g4206" transform="translate(181.0002,-39.999999)" style="opacity:.35"><path id="rect4087" d="m -35.25,-40 c -0.952203,0 -1.75,0.7978 -1.75,1.75 l 0,4.5 c 0,0.9522 0.797797,1.75 1.75,1.75 l 0.125,0 -0.78125,1.5625 -0.71875,1.4375 1.625,0 5,0 0,-1 2.125,0 -0.21875,-0.4375 L -28.875,-32 l 0.125,0 c 0.952203,0 1.75,-0.7978 1.75,-1.75 l 0,-4.5 c 0,-0.9522 -0.797797,-1.75 -1.75,-1.75 l -6.5,0 z m 0.25,2 6,0 0,4 -6,0 0,-4 z" transform="translate(60,257)" style="font-size:medium;font-style:normal;font-variant:normal;font-weight:400;font-stretch:normal;text-indent:0;text-align:start;text-decoration:none;line-height:normal;letter-spacing:normal;word-spacing:normal;text-transform:none;direction:ltr;block-progression:tb;writing-mode:lr-tb;text-anchor:start;baseline-shift:baseline;color:#bebebe;fill:#bebebe;fill-opacity:1;stroke:none;stroke-width:2;marker:none;visibility:visible;display:inline;overflow:visible;enable-background:accumulate;font-family:Sans;-inkscape-font-specification:Sans"/><path id="path4091" d="m 88,199 0,1" transform="translate(-60.0003,30)" style="color:#bebebe;fill:#bebebe;fill-opacity:1;fill-rule:nonzero;stroke:#bebebe;stroke-width:2;stroke-linecap:butt;stroke-linejoin:miter;stroke-miterlimit:4;stroke-opacity:1;stroke-dasharray:none;stroke-dashoffset:0;marker:none;visibility:visible;display:inline;overflow:visible"/><path id="path4093" d="m 21.99975,231 8,0" style="color:#bebebe;fill:#bebebe;fill-opacity:1;fill-rule:nonzero;stroke:#bebebe;stroke-width:2;stroke-linecap:butt;stroke-linejoin:miter;stroke-miterlimit:4;stroke-opacity:1;stroke-dasharray:none;stroke-dashoffset:0;marker:none;visibility:visible;display:inline;overflow:visible"/></g><path id="path3761-2-3-5-4-8-9-8-9-9" d="m 212,188 1.375,0 1.125,1.09375 L 215.59375,188 217,188 l 0,1.46875 -1.09375,1.0625 L 217,191.59375 217,193 215.5625,193 214.5,191.9375 213.4375,193 212,193 l 0,-1.40625 1.0625,-1.0625 L 212,189.46875 212,188 z" style="color:#bebebe;fill:#bebebe;fill-opacity:1;stroke:none;stroke-width:2;marker:none;visibility:visible;display:inline;overflow:visible"/></g></svg>