<svg xmlns="http://www.w3.org/2000/svg" xmlns:svg="http://www.w3.org/2000/svg" id="svg7384" width="16.031" height="16" version="1.1"><metadata id="metadata90"/><title id="title9167">Gnome Symbolic Icon Theme</title><g id="layer9" transform="translate(-160.96895,-258)" style="display:inline"><path id="rect5222-6" d="m 167.03145,259 c -0.57131,0 -1.03125,0.45994 -1.03125,1.03125 L 166.03145,271 c 0,0.554 0.446,1 1,1 l 3.96875,0 c 0.554,0 1,-0.446 1,-1 l 0,-8 c 0,-0.554 -0.446,-1 -1,-1 l -2.96875,0 0,-1.96875 c 0,-0.57131 -0.42869,-1.03125 -1,-1.03125 z m 0,4 3.96875,0 0,3.03125 -3.96875,0 0,-3.03125 z m -0.0312,4 1,0 0,1 1,0 0,-1 1,0 0,1 1,0 0,1 -1,0 0,1 1,0 0,1 -1,0 0,-1 -1,0 0,1 -1,0 0,-1 -1,0 0,-1 1,0 0,-1 -1,0 0,-1 z m 1,2 0,1 1,0 0,-1 -1,0 z m 1,0 1,0 0,-1 -1,0 0,1 z" style="color:#000;fill:#bebebe;fill-opacity:1;fill-rule:nonzero;stroke:none;stroke-width:1px;marker:none;visibility:visible;display:inline;overflow:visible;enable-background:accumulate"/><path id="rect3217-6-2-2-4-8-8" d="m 177.0002,263 0,1 c 0,0.25689 -0.12983,0.52846 -0.3125,0.71875 L 175.40645,266 l 1.28125,1.28125 c 0.18267,0.19029 0.3125,0.46186 0.3125,0.71875 l 0,1 -1,0 c -0.30945,0 -0.55232,-0.0903 -0.75,-0.28125 L 172.59395,266 175.2502,263.28125 C 175.44788,263.0903 175.69075,263 176.0002,263 l 1,0 z" style="font-size:medium;font-style:normal;font-variant:normal;font-weight:400;font-stretch:normal;text-indent:0;text-align:start;text-decoration:none;line-height:normal;letter-spacing:normal;word-spacing:normal;text-transform:none;direction:ltr;block-progression:tb;writing-mode:lr-tb;text-anchor:start;color:#bebebe;fill:#bebebe;fill-opacity:1;stroke:none;stroke-width:2;marker:none;visibility:visible;display:inline;overflow:visible;enable-background:accumulate;font-family:Bitstream Vera Sans;-inkscape-font-specification:Bitstream Vera Sans"/><path id="path5302" d="m 160.96895,263 0,1 c 0,0.25689 0.12983,0.52846 0.3125,0.71875 L 162.5627,266 l -1.28125,1.28125 c -0.18267,0.19029 -0.3125,0.46186 -0.3125,0.71875 l 0,1 1,0 c 0.30945,0 0.55232,-0.0903 0.75,-0.28125 L 165.3752,266 162.71895,263.28125 C 162.52127,263.0903 162.2784,263 161.96895,263 l -1,0 z" style="font-size:medium;font-style:normal;font-variant:normal;font-weight:400;font-stretch:normal;text-indent:0;text-align:start;text-decoration:none;line-height:normal;letter-spacing:normal;word-spacing:normal;text-transform:none;direction:ltr;block-progression:tb;writing-mode:lr-tb;text-anchor:start;color:#bebebe;fill:#bebebe;fill-opacity:1;stroke:none;stroke-width:2;marker:none;visibility:visible;display:inline;overflow:visible;enable-background:accumulate;font-family:Bitstream Vera Sans;-inkscape-font-specification:Bitstream Vera Sans"/></g></svg>