<svg xmlns="http://www.w3.org/2000/svg" xmlns:svg="http://www.w3.org/2000/svg" id="svg6688" width="256" height="184" version="1.1"><metadata id="metadata6693"/><g id="layer1" transform="translate(0,-868.36218)"><path style="fill:none;stroke:#000;stroke-width:6.76670933;stroke-linecap:butt;stroke-linejoin:miter;stroke-miterlimit:4;stroke-dasharray:none;stroke-opacity:1" id="path17610" d="M 198.50002,904.63754 V 1035.7417"/><path style="color:#000;display:inline;overflow:visible;visibility:visible;fill:#000;fill-opacity:1;fill-rule:nonzero;stroke:none;stroke-width:6;marker:none;enable-background:accumulate" id="path17614" d="m 212.10431,1028.6497 -13.75,13.75 -13.75001,-13.75 z"/><g id="g4627" transform="matrix(-1,0,0,1,243.99999,-10)"><path id="path17616" d="m 21.49997,930.54534 v -14 h 203.00005" style="fill:none;stroke:#000;stroke-width:4;stroke-linecap:butt;stroke-linejoin:miter;stroke-miterlimit:4;stroke-dasharray:none;stroke-opacity:1"/></g><g id="g4624" transform="matrix(1,0,0,-1,90,1852.9507)"><path id="path17612" d="m 105.77419,944.8635 a 5.0005001,5.0005001 0 0 1 -4.6756,-0.22337 L 71.38146,927.48104 a 5.0005001,5.0005001 0 0 1 -0.17487,-0.1155 l -2.219,-1.2809 -0.55771,0.9715 9.90573,5.7197 a 5.0005001,5.0005001 0 0 1 1.87199,6.92998 5.0005001,5.0005001 0 0 1 -6.86855,1.72832 l -19.43447,-11.224 -4.33698,-2.5119 2.48476,-4.3212 4.78116,-8.2813 1.36931,-2.3783 c 0.011,-0.02 0.0269,-0.038 0.0386,-0.058 l 1.10396,-1.9003 14.4704,-25.0616 c 1.68323,-2.9154 5.5864,-3.9576 8.50091,-2.2778 l 10.57426,6.1277 a 5.0005001,5.0005001 0 0 1 0.20199,0.1 l 0.10122,0.051 6.43927,3.7156 a 5.0005001,5.0005001 0 0 1 1.84501,6.9456 5.0005001,5.0005001 0 0 1 -6.36357,1.978 l -0.48072,0.8548 5.17625,2.9655 a 5.0005001,5.0005001 0 0 1 1.84491,6.9456 5.0005001,5.0005001 0 0 1 -6.8415,1.7127 l -5.17622,-2.9655 -0.64613,1.1309 5.1491,2.981 a 5.0005001,5.0005001 0 0 1 1.84491,6.9456 5.0005001,5.0005001 0 0 1 -6.8415,1.7126 l -5.1491,-2.981 -0.67324,1.1465 22.79991,13.17805 a 5.0005001,5.0005001 0 0 1 1.82937,6.91849 5.0005001,5.0005001 0 0 1 -2.17732,1.97876 z" style="color:#000;font-style:normal;font-variant:normal;font-weight:400;font-stretch:normal;font-size:medium;line-height:normal;font-family:Sans;-inkscape-font-specification:Sans;text-indent:0;text-align:start;text-decoration:none;text-decoration-line:none;letter-spacing:normal;word-spacing:normal;text-transform:none;writing-mode:lr-tb;direction:ltr;baseline-shift:baseline;text-anchor:start;display:inline;overflow:visible;visibility:visible;fill:#fff;fill-opacity:1;stroke:#000;stroke-width:1;stroke-miterlimit:4;stroke-dasharray:none;stroke-opacity:1;marker:none;enable-background:accumulate"/></g><g id="g4621" transform="matrix(1,0,0,-1,90,1986.8118)"><g id="g17594" transform="matrix(0.50000001,-0.86602541,-0.86602541,-0.50000001,129.13131,1210.8533)"><path style="fill:none;stroke:#000;stroke-width:10;stroke-linecap:round;stroke-linejoin:miter;stroke-miterlimit:4;stroke-dasharray:none;stroke-opacity:1" id="path17596" d="m 159.45258,121.10255 v 34.29468"/><path id="path17598" d="m 170.76629,141.43187 v 13.96536" style="fill:none;stroke:#000;stroke-width:10;stroke-linecap:round;stroke-linejoin:miter;stroke-miterlimit:4;stroke-dasharray:none;stroke-opacity:1"/><path style="fill:none;stroke:#000;stroke-width:10;stroke-linecap:round;stroke-linejoin:miter;stroke-miterlimit:4;stroke-dasharray:none;stroke-opacity:1" id="path17600" d="m 182.08,141.43187 v 13.96536"/><path id="path17602" d="m 193.04016,147.97261 v 7.42462" style="fill:none;stroke:#000;stroke-width:10;stroke-linecap:round;stroke-linejoin:miter;stroke-miterlimit:4;stroke-dasharray:none;stroke-opacity:1"/><path style="color:#000;display:inline;overflow:visible;visibility:visible;fill:none;stroke:#000;stroke-width:10;stroke-linecap:round;stroke-linejoin:miter;stroke-miterlimit:4;stroke-dasharray:none;stroke-dashoffset:0;stroke-opacity:1;marker:none;enable-background:accumulate" id="path17604" d="m 148.31565,146.73517 v 22.45064 h 9.54594 v -6.01041 h -7.6014"/><rect style="color:#000;display:inline;overflow:visible;visibility:visible;fill:#000;fill-opacity:1;stroke:#000;stroke-width:10;stroke-linecap:round;stroke-linejoin:miter;stroke-miterlimit:4;stroke-dasharray:none;stroke-dashoffset:0;stroke-opacity:1;marker:none;enable-background:accumulate" id="rect17606" width="33.588" height="16.794" x="159.453" y="152.392" rx="1.233" ry="1.233"/></g></g></g></svg>