<svg xmlns="http://www.w3.org/2000/svg" xmlns:svg="http://www.w3.org/2000/svg" id="svg1064" width="16.023" height="16" version="1.1"><metadata id="metadata1070"/><g id="g1062" fill="#474747" style="fill:#3584e4"><path style="line-height:normal;font-variant-ligatures:normal;font-variant-position:normal;font-variant-caps:normal;font-variant-numeric:normal;font-variant-alternates:normal;font-feature-settings:normal;text-indent:0;text-align:start;text-decoration-line:none;text-decoration-style:solid;text-decoration-color:#000;text-transform:none;text-orientation:mixed;shape-padding:0;isolation:auto;mix-blend-mode:normal;fill:#3584e4" id="path1054" d="M3.008 4.986A1 1 0 002.023 6v7a1 1 0 001 1h10a1 1 0 001-1V6a1 1 0 10-2 0v6h-8V6a1 1 0 00-1.015-1.014z" color="#000" font-family="sans-serif" font-weight="400" overflow="visible"/><path style="line-height:normal;font-variant-ligatures:normal;font-variant-position:normal;font-variant-caps:normal;font-variant-numeric:normal;font-variant-alternates:normal;font-feature-settings:normal;text-indent:0;text-align:start;text-decoration-line:none;text-decoration-style:solid;text-decoration-color:#000;text-transform:none;text-orientation:mixed;shape-padding:0;isolation:auto;mix-blend-mode:normal;fill:#3584e4" id="path1056" d="M8.031 1a1 1 0 00-.601.186l-7 5a1.001 1.001 0 101.164 1.628L8.012 3.23l6.418 4.585a1.001 1.001 0 101.164-1.628l-7-5A1 1 0 008.03 1z" color="#000" font-family="sans-serif" font-weight="400" overflow="visible"/><path style="marker:none;fill:#3584e4" id="path1058" d="M6.012 8.01h3.03V13h-3.03z" color="#bebebe" overflow="visible"/><path id="path1060" d="M15.012 7h1v1h-1zm-15 0h1v1h-1z" style="fill:#3584e4"/></g></svg>