<svg xmlns="http://www.w3.org/2000/svg" xmlns:svg="http://www.w3.org/2000/svg" id="svg4" width="16.017" height="16.005" version="1.1"><metadata id="metadata10"/><path style="fill:#3584e4;stroke-width:1;marker:none" id="path2" fill="#2e3436" d="m 8.017,0 a 8,8 0 1 0 0,16 8,8 0 0 0 0,-16 z m 0,2 a 2,2 0 1 1 0,4 2,2 0 0 1 0,-4 z M 3.51,6 c 0.016,0 0.032,0 0.048,0.002 0,0 3.015,0.248 4.46,0.248 1.444,0 4.458,-0.248 4.458,-0.248 a 0.5,0.5 0 0 1 0.395,0.852 c -0.193,0.193 -0.293,0.182 -0.426,0.22 A 16.18,16.18 0 0 1 10.017,7.5 c 0.05,1.877 0.084,3.307 0.354,4.2 0.15,0.492 0.297,0.853 0.41,1.113 0.057,0.13 0.104,0.233 0.143,0.326 0.039,0.092 0.093,0.121 0.093,0.361 a 0.5,0.5 0 0 1 -0.853,0.354 C 9.936,13.625 9.764,13.327 9.524,12.918 A 37.549,37.549 0 0 1 8.764,11.547 C 8.365,10.8 8.15,10.367 8.017,10.104 7.885,10.366 7.67,10.8 7.271,11.547 c -0.252,0.472 -0.519,0.962 -0.76,1.371 -0.24,0.409 -0.412,0.707 -0.64,0.936 A 0.5,0.5 0 0 1 5.017,13.5 c 0,-0.24 0.055,-0.269 0.094,-0.361 l 0.143,-0.327 c 0.113,-0.26 0.26,-0.62 0.41,-1.113 C 5.934,10.807 5.968,9.377 6.017,7.5 5.117,7.43 4.5,7.265 3.59,7.074 3.457,7.036 3.357,7.047 3.164,6.854 A 0.5,0.5 0 0 1 3.51,6 Z" overflow="visible"/></svg>